<mxfile host="Electron" agent="Mozilla/5.0 (Windows NT 10.0; Win64; x64) AppleWebKit/537.36 (KHTML, like Gecko) draw.io/24.7.8 Chrome/128.0.6613.36 Electron/32.0.1 Safari/537.36" version="24.7.8">
  <diagram name="Страница — 1" id="7UBAo9NnRvaTtonPQtnK">
    <mxGraphModel dx="1509" dy="888" grid="1" gridSize="10" guides="1" tooltips="1" connect="1" arrows="1" fold="1" page="1" pageScale="1" pageWidth="827" pageHeight="1169" math="0" shadow="0">
      <root>
        <mxCell id="0" />
        <mxCell id="1" parent="0" />
        <mxCell id="e8ymW9C_05LUrCnRimLa-31" style="edgeStyle=orthogonalEdgeStyle;rounded=0;orthogonalLoop=1;jettySize=auto;html=1;exitX=1;exitY=0.75;exitDx=0;exitDy=0;entryX=1;entryY=0.25;entryDx=0;entryDy=0;" edge="1" parent="1" source="e8ymW9C_05LUrCnRimLa-1" target="e8ymW9C_05LUrCnRimLa-3">
          <mxGeometry relative="1" as="geometry">
            <Array as="points">
              <mxPoint x="720" y="325" />
              <mxPoint x="720" y="777" />
            </Array>
          </mxGeometry>
        </mxCell>
        <mxCell id="e8ymW9C_05LUrCnRimLa-1" value="" style="rounded=1;whiteSpace=wrap;html=1;" vertex="1" parent="1">
          <mxGeometry x="160" y="130" width="520" height="260" as="geometry" />
        </mxCell>
        <mxCell id="e8ymW9C_05LUrCnRimLa-24" style="edgeStyle=orthogonalEdgeStyle;rounded=0;orthogonalLoop=1;jettySize=auto;html=1;exitX=0;exitY=0.75;exitDx=0;exitDy=0;entryX=0;entryY=0.25;entryDx=0;entryDy=0;" edge="1" parent="1" source="e8ymW9C_05LUrCnRimLa-2" target="e8ymW9C_05LUrCnRimLa-3">
          <mxGeometry relative="1" as="geometry">
            <Array as="points">
              <mxPoint x="120" y="625" />
              <mxPoint x="120" y="778" />
            </Array>
          </mxGeometry>
        </mxCell>
        <mxCell id="e8ymW9C_05LUrCnRimLa-2" value="" style="rounded=1;whiteSpace=wrap;html=1;" vertex="1" parent="1">
          <mxGeometry x="160" y="430" width="520" height="260" as="geometry" />
        </mxCell>
        <mxCell id="e8ymW9C_05LUrCnRimLa-3" value="" style="rounded=1;whiteSpace=wrap;html=1;" vertex="1" parent="1">
          <mxGeometry x="160" y="710" width="520" height="290" as="geometry" />
        </mxCell>
        <mxCell id="e8ymW9C_05LUrCnRimLa-4" value="app" style="text;html=1;align=center;verticalAlign=middle;whiteSpace=wrap;rounded=0;" vertex="1" parent="1">
          <mxGeometry x="170" y="930" width="60" height="30" as="geometry" />
        </mxCell>
        <mxCell id="e8ymW9C_05LUrCnRimLa-5" value="domain" style="text;html=1;align=center;verticalAlign=middle;whiteSpace=wrap;rounded=0;" vertex="1" parent="1">
          <mxGeometry x="160" y="640" width="60" height="30" as="geometry" />
        </mxCell>
        <mxCell id="e8ymW9C_05LUrCnRimLa-6" value="data" style="text;html=1;align=center;verticalAlign=middle;whiteSpace=wrap;rounded=0;" vertex="1" parent="1">
          <mxGeometry x="160" y="340" width="60" height="30" as="geometry" />
        </mxCell>
        <mxCell id="e8ymW9C_05LUrCnRimLa-7" value="" style="rounded=0;whiteSpace=wrap;html=1;dashed=1;" vertex="1" parent="1">
          <mxGeometry x="260" y="740" width="320" height="230" as="geometry" />
        </mxCell>
        <mxCell id="e8ymW9C_05LUrCnRimLa-8" value="feature" style="text;html=1;align=center;verticalAlign=middle;whiteSpace=wrap;rounded=0;" vertex="1" parent="1">
          <mxGeometry x="270" y="750" width="60" height="30" as="geometry" />
        </mxCell>
        <mxCell id="e8ymW9C_05LUrCnRimLa-10" value="ViewModel" style="rounded=0;whiteSpace=wrap;html=1;" vertex="1" parent="1">
          <mxGeometry x="324" y="770" width="90" height="90" as="geometry" />
        </mxCell>
        <mxCell id="e8ymW9C_05LUrCnRimLa-14" style="edgeStyle=orthogonalEdgeStyle;rounded=0;orthogonalLoop=1;jettySize=auto;html=1;exitX=0.5;exitY=0;exitDx=0;exitDy=0;entryX=0.5;entryY=1;entryDx=0;entryDy=0;" edge="1" parent="1" source="e8ymW9C_05LUrCnRimLa-11" target="e8ymW9C_05LUrCnRimLa-10">
          <mxGeometry relative="1" as="geometry" />
        </mxCell>
        <mxCell id="e8ymW9C_05LUrCnRimLa-11" value="Screen" style="rounded=0;whiteSpace=wrap;html=1;" vertex="1" parent="1">
          <mxGeometry x="330" y="890" width="80" height="60" as="geometry" />
        </mxCell>
        <mxCell id="e8ymW9C_05LUrCnRimLa-15" value="UseCase" style="rounded=1;whiteSpace=wrap;html=1;" vertex="1" parent="1">
          <mxGeometry x="310" y="590" width="120" height="60" as="geometry" />
        </mxCell>
        <mxCell id="e8ymW9C_05LUrCnRimLa-29" style="edgeStyle=orthogonalEdgeStyle;rounded=0;orthogonalLoop=1;jettySize=auto;html=1;exitX=0.5;exitY=1;exitDx=0;exitDy=0;entryX=0.5;entryY=0;entryDx=0;entryDy=0;" edge="1" parent="1" source="e8ymW9C_05LUrCnRimLa-16" target="e8ymW9C_05LUrCnRimLa-15">
          <mxGeometry relative="1" as="geometry" />
        </mxCell>
        <mxCell id="e8ymW9C_05LUrCnRimLa-16" value="Repository" style="rounded=1;whiteSpace=wrap;html=1;" vertex="1" parent="1">
          <mxGeometry x="310" y="460" width="120" height="60" as="geometry" />
        </mxCell>
        <mxCell id="e8ymW9C_05LUrCnRimLa-17" value="Model" style="rounded=1;whiteSpace=wrap;html=1;" vertex="1" parent="1">
          <mxGeometry x="500" y="460" width="120" height="60" as="geometry" />
        </mxCell>
        <mxCell id="e8ymW9C_05LUrCnRimLa-18" value="Model" style="rounded=1;whiteSpace=wrap;html=1;" vertex="1" parent="1">
          <mxGeometry x="500" y="160" width="120" height="60" as="geometry" />
        </mxCell>
        <mxCell id="e8ymW9C_05LUrCnRimLa-19" value="Model" style="rounded=1;whiteSpace=wrap;html=1;" vertex="1" parent="1">
          <mxGeometry x="450" y="780" width="120" height="60" as="geometry" />
        </mxCell>
        <mxCell id="e8ymW9C_05LUrCnRimLa-20" value="RepositoryImpl" style="rounded=1;whiteSpace=wrap;html=1;" vertex="1" parent="1">
          <mxGeometry x="310" y="300" width="120" height="60" as="geometry" />
        </mxCell>
        <mxCell id="e8ymW9C_05LUrCnRimLa-22" style="edgeStyle=orthogonalEdgeStyle;rounded=0;orthogonalLoop=1;jettySize=auto;html=1;exitX=0.5;exitY=1;exitDx=0;exitDy=0;" edge="1" parent="1" source="e8ymW9C_05LUrCnRimLa-21" target="e8ymW9C_05LUrCnRimLa-20">
          <mxGeometry relative="1" as="geometry" />
        </mxCell>
        <mxCell id="e8ymW9C_05LUrCnRimLa-21" value="Api" style="rounded=1;whiteSpace=wrap;html=1;" vertex="1" parent="1">
          <mxGeometry x="310" y="160" width="120" height="60" as="geometry" />
        </mxCell>
        <mxCell id="e8ymW9C_05LUrCnRimLa-23" style="edgeStyle=orthogonalEdgeStyle;rounded=0;orthogonalLoop=1;jettySize=auto;html=1;exitX=0;exitY=0.25;exitDx=0;exitDy=0;entryX=0.001;entryY=0.673;entryDx=0;entryDy=0;entryPerimeter=0;" edge="1" parent="1" source="e8ymW9C_05LUrCnRimLa-2" target="e8ymW9C_05LUrCnRimLa-1">
          <mxGeometry relative="1" as="geometry">
            <Array as="points">
              <mxPoint x="120" y="495" />
              <mxPoint x="120" y="305" />
            </Array>
          </mxGeometry>
        </mxCell>
        <mxCell id="e8ymW9C_05LUrCnRimLa-28" value="" style="endArrow=classic;html=1;rounded=0;exitX=0.5;exitY=0;exitDx=0;exitDy=0;entryX=0.5;entryY=1;entryDx=0;entryDy=0;" edge="1" parent="1" source="e8ymW9C_05LUrCnRimLa-16" target="e8ymW9C_05LUrCnRimLa-20">
          <mxGeometry width="50" height="50" relative="1" as="geometry">
            <mxPoint x="440" y="530" as="sourcePoint" />
            <mxPoint x="490" y="480" as="targetPoint" />
          </mxGeometry>
        </mxCell>
        <mxCell id="e8ymW9C_05LUrCnRimLa-30" value="" style="endArrow=classic;html=1;rounded=0;exitX=0.5;exitY=1;exitDx=0;exitDy=0;" edge="1" parent="1" source="e8ymW9C_05LUrCnRimLa-15" target="e8ymW9C_05LUrCnRimLa-10">
          <mxGeometry width="50" height="50" relative="1" as="geometry">
            <mxPoint x="440" y="530" as="sourcePoint" />
            <mxPoint x="490" y="480" as="targetPoint" />
          </mxGeometry>
        </mxCell>
      </root>
    </mxGraphModel>
  </diagram>
</mxfile>
